<svg width="24" height="24" viewBox="0 0 24 24" fill="none" xmlns="http://www.w3.org/2000/svg">
<path d="M16 19V17.3333C16 16.4493 15.6629 15.6014 15.0627 14.9763C14.4626 14.3512 13.6487 14 12.8 14H7.2C6.35131 14 5.53737 14.3512 4.93726 14.9763C4.33714 15.6014 4 16.4493 4 17.3333V19" stroke="#EB5757" stroke-linecap="round" stroke-linejoin="round"/>
<path d="M10 11C11.6569 11 13 9.65685 13 8C13 6.34315 11.6569 5 10 5C8.34315 5 7 6.34315 7 8C7 9.65685 8.34315 11 10 11Z" stroke="#EB5757" stroke-linecap="round" stroke-linejoin="round"/>
<path d="M17 9L21 13" stroke="#EB5757" stroke-linecap="round" stroke-linejoin="round"/>
<path d="M21 9L17 13" stroke="#EB5757" stroke-linecap="round" stroke-linejoin="round"/>
</svg>
